<svg version="1.2" xmlns="http://www.w3.org/2000/svg" viewBox="0 0 330 330" width="40" height="40">
	<title>right-arrow-svg</title>
	<style>
		.s0 { fill: #000000 } 
	</style>
	<g id="XMLID_28_">
		<path id="XMLID_29_" fill-rule="evenodd" class="s0" d="m330 15v300c0 8.3-6.7 15-15 15h-300c-8.3 0-15-6.7-15-15v-300c0-8.3 6.7-15 15-15h300c8.3 0 15 6.7 15 15zm-30 15h-270v270h270z"/>
		<path id="XMLID_71_" class="s0" d="m215.6 154.4c2.8 2.8 4.4 6.6 4.4 10.6 0 4-1.6 7.8-4.4 10.6l-80 80c-5.9 5.9-15.4 5.9-21.2 0-5.9-5.8-5.9-15.3 0-21.2l69.4-69.4-69.4-69.4c-5.9-5.8-5.9-15.3 0-21.2 2.9-2.9 6.8-4.4 10.6-4.4 3.8 0 7.7 1.5 10.6 4.4z"/>
	</g>
	<g id="Layer">
	</g>
	<g id="Layer">
	</g>
	<g id="Layer">
	</g>
	<g id="Layer">
	</g>
	<g id="Layer">
	</g>
	<g id="Layer">
	</g>
	<g id="Layer">
	</g>
	<g id="Layer">
	</g>
	<g id="Layer">
	</g>
	<g id="Layer">
	</g>
	<g id="Layer">
	</g>
	<g id="Layer">
	</g>
	<g id="Layer">
	</g>
	<g id="Layer">
	</g>
	<g id="Layer">
	</g>
</svg>